<?xml version="1.0" standalone="no"?>
<!DOCTYPE svg PUBLIC "-//W3C//DTD SVG 20010904//EN"
 "http://www.w3.org/TR/2001/REC-SVG-20010904/DTD/svg10.dtd">
<svg version="1.0" xmlns="http://www.w3.org/2000/svg"
 width="651.000000pt" height="383.000000pt" viewBox="0 0 651.000000 383.000000"
 preserveAspectRatio="xMidYMid meet">

<g transform="translate(0.000000,383.000000) scale(0.100000,-0.100000)"
fill="#000000" stroke="none">
<path d="M3399 2670 c-265 -30 -439 -221 -389 -429 24 -102 91 -171 237 -245
l71 -36 178 2 178 3 -170 59 c-187 65 -262 101 -325 154 -113 97 -105 259 19
375 63 58 123 85 224 100 180 26 341 -40 428 -175 47 -71 52 -66 48 52 l-3 83
-45 13 c-129 39 -324 58 -451 44z"/>
<path d="M1210 2640 c0 -5 9 -10 20 -10 35 0 89 -60 129 -144 22 -44 76 -181
122 -303 l83 -223 58 0 c32 0 58 4 58 8 0 5 -34 98 -76 208 -95 250 -104 277
-104 340 0 40 5 55 23 72 27 26 69 42 108 42 16 0 29 5 29 10 0 6 -82 10 -225
10 -143 0 -225 -4 -225 -10z"/>
<path d="M2110 2640 c0 -5 14 -10 30 -10 48 0 98 -26 120 -62 38 -62 29 -121
-59 -377 -45 -133 -74 -231 -67 -231 6 0 56 120 111 267 55 146 115 290 133
320 32 51 73 83 107 83 8 0 15 5 15 10 0 6 -72 10 -195 10 -123 0 -195 -4
-195 -10z"/>
<path d="M4520 2640 c0 -5 9 -10 21 -10 86 0 108 -97 109 -472 l0 -198 60 0
60 0 0 258 c1 141 5 277 9 301 11 56 39 94 79 106 18 5 32 13 32 17 0 4 -83 8
-185 8 -117 0 -185 -4 -185 -10z"/>
<path d="M1239 1818 c24 -60 61 -138 67 -138 9 0 76 151 70 158 -8 7 -7 7 -36
-58 -13 -30 -27 -59 -30 -63 -4 -4 -19 22 -34 58 -16 36 -32 65 -37 65 -5 0
-5 -10 0 -22z"/>
<path d="M1480 1760 c0 -52 4 -79 10 -75 6 3 10 37 10 75 0 38 -4 72 -10 75
-6 4 -10 -23 -10 -75z"/>
<path d="M1620 1759 l0 -82 53 7 c61 8 87 32 87 81 0 46 -38 75 -96 75 l-44 0
0 -81z m113 39 c21 -25 16 -65 -10 -85 -9 -7 -34 -13 -55 -13 l-38 0 0 58 c0
32 3 62 6 65 13 13 79 -5 97 -25z"/>
<path d="M1879 1788 c17 -32 32 -70 32 -85 1 -25 2 -24 8 7 4 19 20 54 36 78
15 23 25 45 22 48 -3 3 -18 -14 -33 -37 l-27 -43 -16 24 c-37 56 -51 61 -22 8z"/>
<path d="M2094 1764 c-20 -42 -33 -78 -30 -81 3 -3 11 6 17 21 10 22 19 26 54
26 35 0 44 -4 54 -26 6 -15 14 -24 18 -21 7 8 -59 157 -70 157 -5 0 -24 -34
-43 -76z m76 -16 c0 -5 -15 -8 -34 -8 l-34 0 16 41 16 41 17 -34 c10 -18 18
-36 19 -40z"/>
<path d="M2448 1829 c-21 -12 -24 -42 -5 -56 6 -6 26 -15 42 -20 20 -6 30 -16
30 -29 0 -16 -7 -19 -42 -18 -50 1 -53 -3 -17 -16 34 -13 72 -3 79 21 9 26
-10 47 -49 57 -58 15 -41 68 18 56 19 -4 26 -3 22 5 -9 14 -55 14 -78 0z"/>
<path d="M2650 1760 l0 -80 49 0 c28 0 53 5 56 10 4 6 -13 10 -45 10 -50 0
-51 1 -48 28 3 23 9 28 43 33 l40 6 -43 2 c-41 1 -43 2 -40 28 3 24 8 28 42
31 59 4 57 12 -2 12 l-52 0 0 -80z"/>
<path d="M2843 1834 c4 -4 17 -7 29 -8 21 -1 23 -7 28 -76 l6 -75 4 75 c5 70
7 75 28 76 12 1 25 4 29 8 3 3 -24 6 -62 6 -38 0 -65 -3 -62 -6z"/>
<path d="M3060 1785 c0 -47 4 -60 26 -81 19 -20 31 -24 52 -19 41 9 52 32 51
99 l-2 61 -7 -57 c-8 -65 -22 -88 -54 -88 -35 0 -46 20 -46 82 0 32 -4 58 -10
58 -5 0 -10 -25 -10 -55z"/>
<path d="M3430 1765 c0 -43 4 -75 10 -75 6 0 10 32 10 75 0 43 -4 75 -10 75
-6 0 -10 -32 -10 -75z"/>
<path d="M3570 1759 c0 -51 4 -78 10 -74 6 3 10 32 10 63 l0 57 33 -40 c17
-22 42 -51 54 -65 l22 -25 1 83 c0 48 -4 82 -10 82 -6 0 -10 -27 -10 -61 l0
-62 -47 61 c-27 34 -51 61 -55 62 -5 0 -8 -36 -8 -81z"/>
<path d="M3828 1829 c-21 -12 -24 -42 -5 -56 6 -6 26 -15 42 -20 20 -6 30 -16
30 -29 0 -16 -7 -19 -43 -18 -30 1 -40 -2 -32 -10 15 -15 80 -12 91 5 16 25 5
43 -38 64 -64 29 -52 75 14 59 18 -5 24 -3 19 5 -9 14 -55 14 -78 0z"/>
<path d="M4003 1833 c4 -3 17 -7 30 -8 20 -1 22 -8 27 -76 l6 -74 4 75 c5 74
5 75 35 81 20 5 8 7 -39 8 -38 0 -66 -2 -63 -6z"/>
<path d="M4228 1768 c-3 -40 -1 -77 4 -82 4 -6 8 26 8 72 0 45 -2 82 -4 82 -2
0 -6 -33 -8 -72z"/>
<path d="M4363 1833 c26 -4 27 -6 27 -73 0 -38 5 -72 10 -75 6 -4 10 22 10 70
l0 77 25 -6 c14 -4 25 -2 25 4 0 6 -26 9 -62 9 -35 -1 -51 -4 -35 -6z"/>
<path d="M4560 1786 c0 -68 7 -85 37 -97 59 -22 93 15 93 101 0 72 -18 62 -22
-11 -3 -69 -17 -86 -61 -75 -26 6 -27 9 -27 71 0 37 -4 65 -10 65 -5 0 -10
-24 -10 -54z"/>
<path d="M4781 1835 c3 -2 16 -6 30 -8 22 -4 24 -9 29 -78 l6 -74 4 75 c5 74
5 75 35 81 20 5 8 7 -39 8 -38 0 -67 -1 -65 -4z"/>
<path d="M5010 1760 l0 -80 50 0 c28 0 50 5 50 10 0 6 -21 10 -46 10 -44 0
-45 1 -42 28 3 23 9 28 43 33 l40 6 -43 2 c-41 1 -43 3 -40 28 3 24 8 28 43
31 58 6 56 12 -3 12 l-52 0 0 -80z"/>
<path d="M1721 1558 c1 -26 124 -339 133 -339 9 0 136 324 136 346 0 22 -19
-14 -45 -85 -15 -41 -31 -79 -35 -83 -4 -5 -16 13 -25 40 -10 26 -26 67 -36
91 l-18 42 -55 0 c-39 0 -56 -4 -55 -12z"/>
<path d="M3010 1477 l0 -96 43 -29 c61 -43 135 -78 224 -108 64 -22 96 -27
178 -27 225 0 411 94 484 246 44 91 44 101 -1 105 -34 3 -38 1 -38 -21 0 -54
-34 -130 -83 -183 -121 -133 -316 -161 -502 -73 -75 35 -169 115 -236 200 -28
35 -55 68 -60 74 -5 5 -9 -30 -9 -88z"/>
<path d="M4646 1528 c-3 -24 -7 -75 -10 -115 -7 -103 -38 -153 -95 -153 -12 0
-21 -4 -21 -10 0 -6 68 -10 185 -10 117 0 185 4 185 10 0 6 -10 10 -23 10 -24
0 -56 28 -77 69 -6 12 -15 71 -18 130 l-7 106 -57 3 -57 3 -5 -43z"/>
</g>
</svg>
